<?xml version="1.0" standalone="no"?>
<!DOCTYPE svg PUBLIC "-//W3C//DTD SVG 20010904//EN"
 "http://www.w3.org/TR/2001/REC-SVG-20010904/DTD/svg10.dtd">
<svg version="1.0" xmlns="http://www.w3.org/2000/svg"
 width="1559.000000pt" height="1559.000000pt" viewBox="0 0 1559.000000 1559.000000"
 preserveAspectRatio="xMidYMid meet">
<metadata>
Created by potrace 1.14, written by Peter Selinger 2001-2017
</metadata>
<g transform="translate(0.000000,1559.000000) scale(0.100000,-0.100000)"
fill="#000000" stroke="none">
<path d="M0 7800 l0 -7790 1197 2 1198 3 0 6057 c0 5675 1 6057 16 6040 15
-14 139 -158 344 -396 28 -32 58 -68 68 -80 20 -22 24 -27 243 -281 75 -88
169 -196 207 -240 39 -44 95 -108 125 -143 30 -35 64 -75 76 -90 11 -15 37
-45 57 -67 20 -22 50 -56 65 -75 16 -19 31 -37 35 -40 3 -3 61 -70 129 -150
68 -80 129 -150 135 -156 5 -6 33 -37 60 -69 28 -32 55 -63 60 -69 6 -6 62
-72 125 -146 63 -74 117 -137 120 -140 3 -3 48 -54 100 -115 52 -60 97 -112
100 -115 3 -3 73 -84 155 -180 178 -207 198 -230 250 -290 23 -25 65 -74 95
-110 30 -36 57 -67 60 -70 5 -5 99 -114 141 -164 13 -15 33 -38 44 -50 11 -12
43 -49 71 -82 28 -32 86 -99 129 -149 87 -101 76 -89 245 -285 68 -80 127
-147 130 -150 3 -3 32 -36 65 -75 32 -38 66 -77 75 -86 8 -9 24 -27 34 -40 31
-38 260 -303 266 -309 3 -3 73 -84 155 -180 83 -96 154 -180 160 -186 5 -6 33
-37 60 -69 28 -32 55 -63 60 -69 6 -6 107 -123 225 -261 219 -255 257 -299
275 -319 6 -6 37 -42 70 -81 33 -38 62 -72 65 -75 3 -3 45 -52 95 -110 49 -58
94 -110 100 -116 5 -6 32 -36 59 -67 l49 -57 223 0 c179 0 225 3 231 14 4 7
26 34 48 58 22 25 61 69 86 99 25 30 92 108 148 174 57 66 122 143 146 170
100 118 309 362 329 385 11 14 73 86 136 160 63 74 117 137 120 140 3 3 30 34
60 70 30 36 57 67 60 70 4 4 48 56 131 154 13 16 29 34 34 40 6 6 75 88 155
181 79 94 147 172 150 175 9 7 338 393 378 444 19 22 37 43 41 46 3 3 56 64
116 135 104 124 148 174 170 199 6 6 48 56 95 111 46 55 91 107 100 116 8 9
24 27 34 40 23 29 237 279 251 295 5 6 30 35 55 64 25 29 50 58 55 64 6 6 44
52 85 101 41 50 80 95 86 100 6 6 33 37 60 70 27 33 58 69 69 81 11 12 40 45
65 74 25 29 50 58 55 64 6 6 21 25 34 41 12 17 46 57 75 90 29 33 151 175 271
315 120 140 237 278 260 305 24 28 103 120 175 205 73 85 144 169 159 185 14
17 64 75 111 130 47 55 87 102 90 105 3 3 68 79 145 170 77 91 142 167 145
170 3 3 81 94 174 203 93 108 171 197 175 197 3 0 6 -2725 5 -6055 l-1 -6055
1204 0 1203 0 0 7790 0 7790 -1114 0 -1114 0 -48 -57 c-27 -32 -51 -60 -54
-63 -6 -5 -444 -511 -485 -559 -11 -13 -25 -29 -30 -35 -6 -6 -37 -42 -70 -81
-33 -38 -64 -75 -70 -81 -5 -6 -32 -37 -60 -69 -27 -32 -55 -63 -60 -69 -6 -6
-37 -42 -70 -81 -33 -38 -62 -72 -65 -75 -3 -3 -32 -36 -65 -75 -33 -38 -62
-72 -65 -75 -3 -3 -32 -36 -65 -75 -33 -38 -72 -83 -87 -100 -54 -62 -325
-375 -437 -505 -64 -74 -120 -140 -126 -146 -5 -6 -32 -37 -60 -69 -27 -32
-55 -63 -60 -69 -6 -6 -53 -60 -105 -121 -51 -60 -112 -130 -134 -156 -23 -25
-52 -58 -66 -75 -33 -39 -464 -537 -540 -624 -35 -40 -128 -148 -168 -194 -24
-28 -56 -64 -71 -81 -14 -16 -67 -77 -116 -135 -50 -58 -104 -121 -121 -140
-18 -19 -82 -93 -144 -165 -61 -71 -122 -141 -134 -155 -23 -26 -214 -247
-345 -399 -41 -47 -131 -151 -200 -231 -69 -80 -137 -158 -151 -174 -28 -33
-87 -101 -171 -197 -31 -35 -116 -134 -189 -219 -73 -85 -136 -157 -139 -160
-3 -3 -33 -36 -66 -75 -93 -108 -91 -106 -310 -360 -114 -132 -222 -256 -239
-275 -17 -19 -56 -64 -86 -100 -30 -36 -59 -68 -64 -72 -5 -3 -25 12 -45 35
-158 179 -158 180 -281 322 -52 61 -142 164 -200 230 -58 66 -146 167 -195
225 -50 58 -92 107 -95 110 -8 8 -81 92 -140 160 -30 35 -91 104 -134 154 -44
50 -102 117 -130 150 -28 32 -55 64 -61 70 -5 6 -39 45 -75 86 -36 41 -67 77
-70 80 -3 3 -32 37 -65 75 -33 39 -64 75 -70 81 -5 6 -35 40 -65 74 -30 35
-77 89 -104 119 -27 31 -61 70 -75 86 -148 171 -227 261 -231 265 -3 3 -27 32
-55 65 -27 33 -55 65 -61 70 -6 6 -69 78 -140 160 -71 83 -131 152 -134 155
-3 3 -34 39 -70 80 -35 41 -71 82 -80 91 -8 9 -26 29 -39 45 -51 60 -163 190
-342 395 -46 52 -93 106 -104 120 -12 13 -57 65 -100 115 -44 49 -102 116
-130 148 -27 33 -55 64 -60 70 -6 6 -55 63 -110 126 -55 63 -105 120 -111 126
-5 6 -30 35 -55 64 -24 29 -55 65 -69 80 -14 15 -44 50 -66 76 -23 27 -50 58
-60 70 -11 12 -44 50 -74 84 -30 35 -60 68 -65 74 -6 6 -53 61 -105 121 -52
61 -97 112 -100 115 -3 3 -32 36 -65 75 -62 72 -112 129 -130 149 -6 6 -39 45
-74 86 -35 41 -67 77 -70 80 -3 3 -62 70 -131 150 -68 80 -127 147 -130 150
-3 3 -48 55 -100 115 -52 61 -112 130 -134 155 -23 25 -66 75 -97 110 -67 78
-340 391 -412 474 -29 32 -53 62 -55 67 -2 5 -501 9 -1133 9 l-1129 0 0 -7790z"/>
</g>
</svg>
